<?xml version="1.0" encoding="UTF-8"?>
<svg xmlns="http://www.w3.org/2000/svg" version="1.1" viewBox="0 0 20.7 10.01">
  <!-- Generator: Adobe Illustrator 29.8.2, SVG Export Plug-In . SVG Version: 2.1.1 Build 3)  -->
  <defs>
    <style>
      .st0 {
        fill: #fff;
      }

      .st1 {
        fill: #fdc435;
      }
    </style>
  </defs>
  <g id="Layer_1">
    <g>
      <path class="st0" d="M5.03,9.96l-1.86-3.56h-.01v3.56H.05V.05h4.62c.8,0,1.49.14,2.06.43s1,.67,1.28,1.16c.28.49.43,1.04.43,1.66,0,.66-.18,1.25-.55,1.76-.37.51-.9.88-1.59,1.11l2.16,3.79h-3.42ZM3.15,4.33h1.23c.3,0,.52-.07.67-.2s.22-.35.22-.64c0-.26-.08-.47-.23-.62-.15-.15-.38-.22-.67-.22h-1.23v1.68Z"/>
      <path class="st0" d="M13.96,8.46h-3.3l-.49,1.5h-3.26L10.53.05h3.58l3.61,9.91h-3.28l-.49-1.5ZM13.21,6.12l-.89-2.76-.9,2.76h1.79Z"/>
    </g>
  </g>
  <g id="Layer_2">
    <rect class="st1" x="17.91" y="7.22" width="2.74" height="2.74"/>
  </g>
</svg>